<svg xmlns="http://www.w3.org/2000/svg" width="160" height="39" viewBox="0 0 160 39" fill="none">
    <path
        d="M0 1.18249C0 0.529418 0.529158 0 1.18191 0H39.0034C39.6562 0 40.1854 0.529421 40.1854 1.1825V37.8175C40.1854 38.4706 39.6562 39 39.0034 39H1.18191C0.529158 39 0 38.4706 0 37.8175V1.18249Z"
        fill="none" />
    <path fill-rule="evenodd" clip-rule="evenodd"
        d="M29.5478 8.74031L27.9034 7.09521L20.0932 14.9094L18.0378 12.853L16.3935 14.4981L20.0932 18.1997L29.5478 8.74031ZM10.6387 8.74061L14.7494 12.8534L16.3937 11.2083L12.283 7.09551L10.6387 8.74061Z"
        fill="white" />
    <path fill-rule="evenodd" clip-rule="evenodd"
        d="M29.5461 22.4459L27.9018 20.8008L20.0914 28.6149L18.0361 26.5586L16.3918 28.2037L20.0914 31.9051L29.5461 22.4459ZM10.6377 22.4466L14.7484 26.5594L16.3926 24.9143L12.282 20.8015L10.6377 22.4466Z"
        fill="white" />
    <path fill-rule="evenodd" clip-rule="evenodd"
        d="M29.547 15.4659L25.4362 19.5786L23.7919 17.9335L27.9027 13.8208L29.547 15.4659ZM10.6387 15.4662L12.283 13.8212L20.0933 21.6353L22.1487 19.579L23.793 21.2241L20.0933 24.9256L10.6387 15.4662Z"
        fill="white" />
    <path
        d="M49.6367 29.0889H52.2253V22.374L55.4678 19.3926L62.4978 29.0889H65.7676L57.2389 17.6467L65.4406 9.9112H62.0891L52.2253 19.4732V9.9112H49.6367V29.0889Z"
        fill="white" />
    <path
        d="M83.2878 9.9112H80.3451L74.6502 19.0434L68.8191 9.9112H65.7401L73.2606 21.2459V29.0889H75.8491V21.2459L83.2878 9.9112Z"
        fill="white" />
    <path
        d="M101.747 15.686C101.174 11.6033 97.7957 9.45459 93.7358 9.45459C87.7412 9.45459 84.5259 13.967 84.5259 19.5538C84.5259 25.1405 87.496 29.5455 93.5178 29.5455C98.4497 29.5455 101.42 26.6715 101.937 21.8637H99.3489C99.1309 25.0331 97.1145 27.3967 93.7358 27.3967C89.0764 27.3967 87.1145 23.7438 87.1145 19.3657C87.1145 15.3637 89.0764 11.6033 93.7085 11.6033C96.4333 11.6033 98.5859 12.9732 99.1581 15.686H101.747Z"
        fill="white" />
    <path
        d="M107.733 12.06H112.092C116.861 12.06 118.577 14.8265 118.577 19.3926C118.577 26.4566 113.809 26.9401 112.038 26.9401H107.733V12.06ZM105.144 29.0889H111.82C118.305 29.0889 121.166 25.4628 121.166 19.0434C121.166 12.8926 117.814 9.9112 111.82 9.9112H105.144V29.0889Z"
        fill="white" />
    <path
        d="M130.978 12.2211H131.032L134.275 21.1653H127.681L130.978 12.2211ZM122.013 29.0889H124.684L126.863 23.3141H135.092L137.218 29.0889H140.079L132.477 9.9112H129.615L122.013 29.0889Z"
        fill="white" />
    <path
        d="M143.497 19.5C143.497 15.6323 145.486 11.6033 150.227 11.6033C154.968 11.6033 156.957 15.6323 156.957 19.5C156.957 23.3678 154.968 27.3967 150.227 27.3967C145.486 27.3967 143.497 23.3678 143.497 19.5ZM140.908 19.5C140.908 24.7376 144.042 29.5455 150.227 29.5455C156.412 29.5455 159.546 24.7376 159.546 19.5C159.546 14.2624 156.412 9.45459 150.227 9.45459C144.042 9.45459 140.908 14.2624 140.908 19.5Z"
        fill="white" />
</svg>